<svg width="112" height="135" viewBox="0 0 112 135" fill="none" xmlns="http://www.w3.org/2000/svg">
<g clip-path="url(#clip0_1_29)">
<path d="M54.9188 0.000919274C50.3351 0.0222173 45.9578 0.413137 42.1063 1.09467C30.7601 3.09917 28.7 7.29477 28.7 15.0322V25.2509H55.5125V28.6572H28.7H18.6375C10.8451 28.6572 4.02178 33.3409 1.88754 42.2509C-0.574285 52.4639 -0.68348 58.8369 1.88754 69.5009C3.79346 77.4388 8.34508 83.0947 16.1375 83.0947H25.3563V70.8447C25.3563 61.9948 33.0134 54.1884 42.1063 54.1884H68.8875C76.3425 54.1884 82.2938 48.0503 82.2938 40.5634V15.0322C82.2938 7.76583 76.1638 2.30739 68.8875 1.09467C64.2815 0.327944 59.5024 -0.020379 54.9188 0.000919274ZM40.4188 8.21967C43.1883 8.21967 45.45 10.5183 45.45 13.3447C45.45 16.161 43.1883 18.4384 40.4188 18.4384C37.6393 18.4384 35.3875 16.161 35.3875 13.3447C35.3875 10.5183 37.6393 8.21967 40.4188 8.21967Z" fill="url(#paint0_linear_1_29)"/>
<path d="M85.6375 28.6572V40.5634C85.6375 49.7942 77.8116 57.5634 68.8875 57.5634H42.1063C34.7705 57.5634 28.7 63.8419 28.7 71.1884V96.7197C28.7 103.986 35.0186 108.26 42.1063 110.345C50.5936 112.84 58.7325 113.291 68.8875 110.345C75.6377 108.39 82.2938 104.457 82.2938 96.7197V86.5009H55.5125V83.0947H82.2938H95.7001C103.493 83.0947 106.396 77.6593 109.106 69.5009C111.906 61.102 111.787 53.0251 109.106 42.2509C107.181 34.4935 103.502 28.6572 95.7001 28.6572H85.6375ZM70.575 93.3134C73.3545 93.3134 75.6063 95.5908 75.6063 98.4072C75.6063 101.234 73.3545 103.532 70.575 103.532C67.8055 103.532 65.5438 101.234 65.5438 98.4072C65.5438 95.5908 67.8055 93.3134 70.575 93.3134Z" fill="url(#paint1_linear_1_29)"/>
</g>
<path d="M100.826 75.8898C96.9418 74.0726 92.7889 72.752 88.4472 72C87.914 72.964 87.2911 74.2607 86.8616 75.2921C82.2462 74.598 77.6734 74.598 73.1429 75.2921C72.7135 74.2607 72.0764 72.964 71.5384 72C67.192 72.752 63.0344 74.0775 59.1505 75.8995C51.3166 87.7375 49.193 99.2814 50.2548 110.661C55.4506 114.542 60.486 116.899 65.4364 118.441C66.6587 116.759 67.7488 114.971 68.6879 113.086C66.8994 112.406 65.1863 111.568 63.5677 110.594C63.9971 110.276 64.4171 109.943 64.823 109.601C74.6955 114.219 85.4222 114.219 95.1768 109.601C95.5874 109.943 96.0074 110.276 96.4321 110.594C94.8087 111.572 93.091 112.411 91.3024 113.091C92.2415 114.971 93.3269 116.764 94.5539 118.446C99.5091 116.903 104.549 114.546 109.745 110.661C110.991 97.4691 107.617 86.0312 100.826 75.8898ZM70.0329 103.663C67.0693 103.663 64.6389 100.896 64.6389 97.5269C64.6389 94.1577 67.0174 91.3862 70.0329 91.3862C73.0486 91.3862 75.4789 94.1529 75.427 97.5269C75.4317 100.896 73.0486 103.663 70.0329 103.663ZM89.9669 103.663C87.0032 103.663 84.5728 100.896 84.5728 97.5269C84.5728 94.1577 86.9512 91.3862 89.9669 91.3862C92.9824 91.3862 95.4128 94.1529 95.3609 97.5269C95.3609 100.896 92.9824 103.663 89.9669 103.663Z" fill="#5865F2"/>
<defs>
<linearGradient id="paint0_linear_1_29" x1="-3.34028e-07" y1="-2.90161e-07" x2="61.8267" y2="52.6849" gradientUnits="userSpaceOnUse">
<stop stop-color="#5A9FD4"/>
<stop offset="1" stop-color="#306998"/>
</linearGradient>
<linearGradient id="paint1_linear_1_29" x1="69.9307" y1="97.548" x2="47.7496" y2="66.4657" gradientUnits="userSpaceOnUse">
<stop stop-color="#FFD43B"/>
<stop offset="1" stop-color="#FFE873"/>
</linearGradient>
<clipPath id="clip0_1_29">
<rect width="111.161" height="134.668" fill="white"/>
</clipPath>
</defs>
</svg>
