<svg width="112" height="135" viewBox="0 0 112 135" fill="none" xmlns="http://www.w3.org/2000/svg">
<g clip-path="url(#clip0_1_25)">
<path d="M54.9188 0.000919274C50.3351 0.0222173 45.9578 0.413137 42.1063 1.09467C30.7601 3.09917 28.7 7.29477 28.7 15.0322V25.2509H55.5125V28.6572H28.7H18.6375C10.8451 28.6572 4.02178 33.3409 1.88754 42.2509C-0.574285 52.4639 -0.68348 58.8369 1.88754 69.5009C3.79346 77.4388 8.34508 83.0947 16.1375 83.0947H25.3563V70.8447C25.3563 61.9948 33.0134 54.1884 42.1063 54.1884H68.8875C76.3425 54.1884 82.2938 48.0503 82.2938 40.5634V15.0322C82.2938 7.76583 76.1638 2.30739 68.8875 1.09467C64.2815 0.327944 59.5024 -0.020379 54.9188 0.000919274ZM40.4188 8.21967C43.1883 8.21967 45.45 10.5183 45.45 13.3447C45.45 16.161 43.1883 18.4384 40.4188 18.4384C37.6393 18.4384 35.3875 16.161 35.3875 13.3447C35.3875 10.5183 37.6393 8.21967 40.4188 8.21967Z" fill="url(#paint0_linear_1_25)"/>
<path d="M85.6375 28.6572V40.5634C85.6375 49.7942 77.8116 57.5634 68.8875 57.5634H42.1063C34.7705 57.5634 28.7 63.8419 28.7 71.1884V96.7197C28.7 103.986 35.0186 108.26 42.1063 110.345C50.5936 112.84 58.7325 113.291 68.8875 110.345C75.6377 108.39 82.2938 104.457 82.2938 96.7197V86.5009H55.5125V83.0947H82.2938H95.7001C103.493 83.0947 106.396 77.6593 109.106 69.5009C111.906 61.102 111.787 53.0251 109.106 42.2509C107.181 34.4935 103.502 28.6572 95.7001 28.6572H85.6375ZM70.575 93.3134C73.3545 93.3134 75.6063 95.5908 75.6063 98.4072C75.6063 101.234 73.3545 103.532 70.575 103.532C67.8055 103.532 65.5438 101.234 65.5438 98.4072C65.5438 95.5908 67.8055 93.3134 70.575 93.3134Z" fill="url(#paint1_linear_1_25)"/>
</g>
<path d="M61.9297 70.4616C61.9297 70.4616 63.3242 69.5828 64.1063 69.2028L76.2688 74.0597L95.9398 74.6356C95.9398 74.6356 97.4164 76.2981 97.8539 76.8681L101.425 87.995L104.307 89.2478C104.307 89.2478 104.969 91.3972 105.155 92.2106L104.559 97.3406L76.0445 105.018L53.1469 98.92L53.218 83.6369L60.218 73.7391L61.9297 70.4616Z" fill="#2F2F2F"/>
<path d="M79.9985 83.3697C79.9438 86.3741 79.7906 95.0072 79.8453 100.018C80.7586 100.042 81.7594 99.9888 82.8641 99.8641C84.3406 99.7038 85.8828 99.3831 87.3703 99.0744L88.3164 98.8784C89.8422 98.5638 91.2531 98.1719 92.6313 97.6791C94.7586 96.9191 97.1102 95.9394 99.232 94.5203C97.6735 88.6244 94.8789 84.2009 93.982 82.8769C87.9664 82.3603 82.2024 83.0491 79.9985 83.3697Z" fill="#757F3F"/>
<path d="M95.9891 81.5587C97.0555 83.1441 99.6149 87.3359 101.245 92.9706C102.437 91.8959 103.465 90.6134 104.252 89.0994C103.52 86.8847 102.634 84.7353 101.573 82.6869C100.506 80.6325 99.2649 78.6672 97.8594 76.8622C97.3399 78.7087 96.5141 80.5137 95.9891 81.5587Z" fill="#757F3F"/>
<path d="M64.7188 73.3472C67.0484 74.315 75.0274 77.7588 79.1508 80.9353C80.9281 80.6503 87.1844 79.7716 93.9383 80.3297C94.8133 78.5781 95.732 76.2269 95.9344 74.6297C95.8524 74.5406 95.7813 74.4456 95.6992 74.3625C92.8938 71.5006 89.3391 69.9272 85.7516 68.6091C80.7422 66.7684 75.2899 66.1212 70.0672 67.1366C68 67.5403 66.0039 68.235 64.1063 69.2028L64.7188 73.3472Z" fill="#757F3F"/>
<path d="M105.138 92.2284C104.05 93.7425 102.732 95.0013 101.321 96.0463C101.294 96.07 101.261 96.0878 101.239 96.1116C98.6469 98.0116 95.7539 99.2347 93.3641 100.084C91.8875 100.612 90.3836 101.034 88.7539 101.366L87.8078 101.562C86.2656 101.883 84.6797 102.215 83.0992 102.393C82.1695 102.494 81.207 102.578 80.2391 102.578C77.3516 102.578 74.4531 101.841 72.3367 98.7003C71.4836 97.4238 70.532 96.3491 69.5203 95.5059L69.0992 95.1497C68.4594 94.5975 67.2617 93.5644 66.6438 93.5466L66.7039 91.0113C68.1039 91.0528 69.5203 92.27 70.5539 93.1606L70.9367 93.4872C72.1235 94.4728 73.2336 95.7197 74.2235 97.1981C75.1149 98.5222 76.2031 99.2763 77.5102 99.6741C77.4664 94.3184 77.625 85.4122 77.6742 82.9066C73.6711 79.8606 65.6211 76.4228 63.7016 75.6272C62.9469 76.1319 61 77.8894 58.7086 80.4247C58.4789 80.68 58.1727 80.8047 57.8719 80.8047C57.5766 80.8047 57.2813 80.6859 57.057 80.4425C56.5977 79.9556 56.5867 79.1541 57.0406 78.6494C58.4899 77.0522 60.7867 74.6356 62.3945 73.555L61.9297 70.4556C58.0141 72.9969 54.1477 76.9394 51.8235 81.5231C49.4938 86.1009 48.7063 91.3081 50.9266 96.3491C51.6539 97.9819 53.1141 100.725 54.5797 101.675C55.8758 102.518 57.2485 103.237 58.6485 103.866C59.8899 104.424 60.9399 105.125 62.2141 105.528C63.3516 105.897 64.5274 106.294 65.6813 106.573C66.8461 106.858 68.0547 106.948 69.225 107.185C70.2641 107.393 71.3141 107.583 72.3641 107.601C77.7508 107.678 83.1977 107.987 88.486 106.597C91.7016 105.754 94.8899 104.703 97.9141 103.254C99.4453 102.53 100.938 101.699 102.344 100.725C103.487 99.9413 104.991 99.1694 105.587 97.7681C106.216 96.2897 105.68 94.5025 105.346 93.0063C105.286 92.7569 105.204 92.4897 105.138 92.2284Z" fill="#757F3F"/>
<path d="M56.3789 106.407C55.843 106.063 55.0773 105.944 54.0383 105.784C52.6711 105.576 51.1836 105.16 49.8164 105.427C48.6406 105.659 48.5148 105.986 48.132 107.167C47.5359 109.026 45.8023 114.595 47.1477 116.352C47.4813 116.786 48.2578 116.94 48.7336 117.095C50.1063 117.546 51.5664 117.647 53.0102 117.754C54.2406 117.843 55.4547 117.599 56.6305 117.243C57.5109 116.976 57.8992 116.75 57.9703 115.693C58.1289 113.437 57.6641 111.211 57.4781 108.972C57.3469 107.523 57.0188 106.811 56.3789 106.407Z" fill="#BDCF46"/>
<path d="M103.864 99.7156C103.355 100.084 102.814 100.41 102.338 100.737C100.933 101.705 99.4399 102.536 97.9086 103.266C94.8844 104.715 91.6961 105.766 88.4805 106.609C83.1922 107.998 77.7453 107.69 72.3586 107.612C71.3031 107.595 70.2531 107.405 69.2195 107.197C68.9297 107.137 68.6453 107.09 68.3555 107.042L68.6399 110.338C68.6399 110.338 69.668 110.421 71.5055 110.296C71.15 114.114 71.0352 118.235 71.932 119.018C72.3367 119.375 73.1953 119.44 73.7203 119.535C75.2625 119.814 76.8594 119.772 78.4453 119.743C79.7961 119.719 81.0977 119.398 82.3445 118.983C83.2797 118.674 83.6844 118.448 83.668 117.516C83.6516 116.323 83.2797 112.487 82.9024 109.204C86.3695 108.711 90.6406 107.779 94.5016 106.039C94.5563 107.357 94.6055 108.485 94.6 108.717C94.5672 109.625 94.5563 110.866 95.2945 111.567C97.3508 113.532 102.442 112.386 104.805 111.531C106.566 110.902 106.024 108.675 105.674 107.375C105.472 106.597 104.657 102.548 103.864 99.7156Z" fill="#BDCF46"/>
<path d="M109.491 86.1662C108.573 85.2281 107.063 86.4394 106.221 86.9262C105.466 87.3656 104.717 87.7991 103.952 88.2087C104.504 89.7822 104.985 91.3853 105.346 93.0241C105.51 93.7544 105.718 94.5559 105.822 95.3575C105.849 95.3219 105.877 95.2862 105.904 95.2566C106.183 94.9122 106.434 94.5619 106.68 94.1878C107.638 92.7153 108.365 91.0884 109.147 89.5091C109.524 88.7194 110.219 86.9144 109.491 86.1662Z" fill="#BDCF46"/>
<path d="M68.6453 110.338C68.0274 110.362 67.4039 110.356 66.7641 110.356C62.2086 110.356 57.8664 110.225 53.382 109.121C46.5735 107.452 41.2688 103.029 40.3445 95.12C39.7758 90.2453 40.6836 84.4681 44.1508 81.0541C47.4047 77.8478 53.2563 76.9631 57.2649 78.4416C61.9352 80.1753 65.3367 84.3434 67.2781 89.1528C68.7711 92.8578 69.7828 96.1828 70.4117 100.179C70.5047 100.79 71.5383 110.035 70.3297 110.207C69.7719 110.278 69.2086 110.32 68.6453 110.338Z" fill="#BDCF46"/>
<path d="M56.543 85.6853C57.8883 85.4241 59.2063 86.5522 59.4852 88.2147C59.7641 89.8712 58.9 91.4387 57.5547 91.7059C56.2149 91.9672 54.8969 90.8391 54.6125 89.1825C54.3336 87.52 55.1977 85.9584 56.543 85.6853Z" fill="#2F2F2F"/>
<path d="M44.2328 87.8822C44.6156 86.2494 46.0102 85.2222 47.3281 85.5903C48.6516 85.9584 49.4117 87.5853 49.0289 89.2181C48.6406 90.8509 47.257 91.8781 45.9336 91.51C44.6156 91.1359 43.85 89.515 44.2328 87.8822Z" fill="#2F2F2F"/>
<path d="M53.0156 95.0784C52.3922 95.4466 51.8563 95.8384 51.1289 95.5475C50.7078 95.3812 50.3086 95.2506 49.9422 94.9537C49.6797 94.7459 49.3844 94.5737 49.1219 94.3659C48.9852 94.2591 48.8539 94.1462 48.7172 94.0394C48.5641 93.9147 48.5094 93.8612 48.3125 93.8316C48.1539 93.8137 47.8422 93.8019 47.7219 93.9444C47.2078 94.5678 47.9297 95.4941 48.318 95.9156C48.8977 96.5272 49.7234 97.2219 50.4836 97.5781C51.2273 97.9284 51.9656 98.35 52.7586 97.9225C53.6281 97.4475 54.3828 96.7587 55.1484 96.1234C55.6516 95.7078 56.7781 94.9775 56.5813 94.1641C56.4445 93.5703 55.8102 93.695 55.3945 93.8375C54.8695 94.0097 54.3992 94.3006 53.9125 94.5678C53.6117 94.7281 53.3164 94.9062 53.0156 95.0784Z" fill="#2F2F2F"/>
<defs>
<linearGradient id="paint0_linear_1_25" x1="-3.34028e-07" y1="-2.90161e-07" x2="61.8267" y2="52.6849" gradientUnits="userSpaceOnUse">
<stop stop-color="#5A9FD4"/>
<stop offset="1" stop-color="#306998"/>
</linearGradient>
<linearGradient id="paint1_linear_1_25" x1="69.9307" y1="97.548" x2="47.7496" y2="66.4657" gradientUnits="userSpaceOnUse">
<stop stop-color="#FFD43B"/>
<stop offset="1" stop-color="#FFE873"/>
</linearGradient>
<clipPath id="clip0_1_25">
<rect width="111.161" height="134.668" fill="white"/>
</clipPath>
</defs>
</svg>
